<?xml version="1.0" encoding="utf-8"?>
<!-- Generator: Adobe Illustrator 28.0.0, SVG Export Plug-In . SVG Version: 6.00 Build 0)  -->
<svg version="1.1" id="Layer_1" xmlns="http://www.w3.org/2000/svg" xmlns:xlink="http://www.w3.org/1999/xlink" x="0px" y="0px"
	 viewBox="0 0 1080 309.91" style="enable-background:new 0 0 1080 309.91;" xml:space="preserve">
<style type="text/css">
	.st0{stroke:#000000;stroke-miterlimit:10;}
</style>
<polygon class="st0" points="90.99,85.61 91.02,67.56 346.99,67.56 347.03,243.54 329.04,243.54 329.04,85.59 "/>
<path class="st0" d="M91.09,138.54"/>
<polygon class="st0" points="91,138.56 176.99,138.58 176.99,156.61 109.03,156.61 109.01,243.54 90.99,243.54 "/>
<polygon class="st0" points="211.01,138.56 228.99,138.55 229.01,243.54 211.01,243.54 "/>
<polygon class="st0" points="389.03,85.67 380.67,67.61 504,67.57 504,156.57 485.99,156.57 486.03,85.56 "/>
<polygon class="st0" points="414.11,138.58 434,138.57 474,225.56 643.01,225.6 643.05,85.58 535.99,85.56 536.02,67.56 661,67.56 
	661,243.57 462.01,243.57 "/>
<polygon class="st0" points="695.01,138.56 713.05,138.56 713.02,243.56 695.03,243.56 "/>
<polygon class="st0" points="695,85.56 695.01,67.56 831.01,67.56 831.01,225.56 971,225.55 971,85.56 864.01,85.56 864.02,67.56 
	989,67.56 989.01,243.56 812.99,243.56 813.05,85.58 "/>
</svg>
